<?xml version="1.0" encoding="UTF-8" standalone="no"?>
<svg width="50px" height="46px" viewBox="0 0 50 46" version="1.1" xmlns="http://www.w3.org/2000/svg" xmlns:xlink="http://www.w3.org/1999/xlink">
  <!-- Generator: Sketch 3.8.3 (29802) - http://www.bohemiancoding.com/sketch -->
  <title>Group</title>
  <desc>Created with Sketch.</desc>
  <defs></defs>
  <g id="Page-1" stroke="none" stroke-width="1" fill="none" fill-rule="evenodd">
    <g id="Group" fill="#FFFFFF">
      <path d="M47.9964836,38.2489093 L49.7760623,38.2489093 L49.7760623,45.3018245 L35.4730118,45.3018245 L35.4730118,38.2489093 L37.2531014,38.2489093 L37.2531014,20.1899924 L35.4730118,20.1899924 L35.4730118,13.2034984 L47.9964836,13.2034984 L47.9964836,38.2489093 L47.9964836,38.2489093 Z M48.6555868,5.35965934 C48.6555868,8.58875411 46.1509947,10.5665747 42.1304651,10.5665747 C38.1099356,10.5665747 35.5394331,8.58926504 35.5394331,5.42556966 C35.5394331,2.19596395 38.0435143,0.218654339 42.1958645,0.218654339 C46.1509947,0.218654339 48.6555868,2.26187427 48.6555868,5.35965934 L48.6555868,5.35965934 Z" id="I"></path>
      <path d="M3.05228719,8.29292407 L0.218654339,8.29292407 L0.218654339,1.24051977 L17.8826202,1.24051977 C22.0349704,1.24051977 25.5287283,2.36099522 27.7037689,4.3377939 C31.3288365,7.56739961 33.1743255,14.0271219 33.1743255,23.1227462 C33.1743255,34.1297697 30.603823,40.984954 25.5287283,43.4231249 C23.2872665,44.47769 19.1349163,45.2027035 15.1143868,45.2027035 L0.218654339,45.2027035 L0.218654339,38.1502992 L3.05279812,38.1502992 L3.05279812,8.29292407 L3.05228719,8.29292407 Z M15.1802971,38.1502992 C20.1240821,38.1502992 21.1122259,35.4479761 21.1122259,21.7386294 C21.1122259,14.7521355 20.5849434,11.0611575 19.3326473,9.61113047 C18.5422344,8.55656535 17.224028,8.22701374 14.0598216,8.29292407 L14.0598216,38.1502992 L15.1802971,38.1502992 L15.1802971,38.1502992 Z" id="D"></path>
    </g>
  </g>
</svg>